<svg width="96" height="120" viewBox="0 0 96 120" fill="none" xmlns="http://www.w3.org/2000/svg">
<path d="M95.4106 49.6375C96.3792 66.3563 93.1003 81.3919 86.7131 93.2346C85.5063 95.4702 84.0737 97.7363 82.1733 99.6133C83.7644 103.4 85.3592 107.158 86.9652 110.924C87.5417 112.295 88.1496 113.68 88.3053 115.182C88.4495 116.565 88.323 118.619 86.8087 119.434C85.1913 120.297 83.3005 118.732 82.4053 117.659C81.4627 116.482 80.8819 115.092 80.303 113.713C78.7692 109.933 77.2077 106.15 75.6166 102.363C72.9445 102.403 70.323 101.839 67.8613 101.136C52.1386 96.5978 36.2487 85.4335 23.6045 68.1203C17.5276 59.799 12.207 50.0468 8.01472 38.9262C20.9961 32.1597 34.1212 25.6831 47.6343 20.0838C59.6686 15.0802 72.0252 10.7982 84.6298 7.70463C91.2352 22.2354 94.645 36.4615 95.4106 49.6375Z" fill="#F89C9E"/>
<path d="M86.1853 119.651C84.7297 119.909 83.1874 118.597 82.4053 117.659C81.4627 116.482 80.8819 115.092 80.303 113.713C78.7692 109.933 77.2077 106.15 75.6166 102.363C72.9445 102.403 70.323 101.839 67.8613 101.136C52.1386 96.5978 36.2487 85.4335 23.6045 68.1203C25.869 68.46 28.146 68.7189 30.4291 68.8976C31.1138 69.754 31.8121 70.5994 32.5244 71.4345C39.3949 79.4832 47.6017 86.5001 56.9961 91.4357C60.7125 93.3885 64.7683 95.2461 68.8207 96.3535C70.2454 96.7427 71.8175 96.7584 73.3894 96.4791C73.9709 96.3757 74.552 96.2318 75.1248 96.0526C78.0571 95.1309 80.7902 93.2577 82.3221 90.9566C84.9699 86.9758 86.5582 81.7582 87.8233 77.1941C89.9946 69.3612 90.8274 61.205 90.6109 53.0844C92.2461 51.9849 93.8464 50.8366 95.4106 49.6375C96.3792 66.3563 93.1003 81.3919 86.7131 93.2346C85.5063 95.4702 84.0737 97.7363 82.1733 99.6133C83.7644 103.4 85.3592 107.158 86.9652 110.924C87.4697 112.124 87.9982 113.335 88.2265 114.624C88.2592 114.808 88.2864 114.994 88.3053 115.182C88.4495 116.565 88.323 118.619 86.8087 119.434C86.6045 119.543 86.3954 119.613 86.1853 119.651Z" fill="#F6898B"/>
<path d="M75.1248 96.0526C73.0006 96.7194 70.7721 96.8862 68.8207 96.3535C64.7683 95.2461 60.7125 93.3885 56.9961 91.4357C47.6017 86.5001 39.3949 79.4832 32.5244 71.4345C24.8571 62.4515 18.7951 52.1432 14.2556 41.2565C27.4075 34.4907 38.0049 29.4812 48.1879 25.2101L49.5313 24.6501C60.8578 19.9425 71.4485 16.2907 81.7778 13.5367C82.5222 13.3377 86.8092 28.1006 87.18 29.5227C88.5467 34.7685 89.5447 40.1118 90.109 45.5022C91.2171 56.0815 90.6717 66.9159 87.8233 77.1941C86.5582 81.7582 84.9699 86.9758 82.3221 90.9566C80.7902 93.2577 78.0571 95.1309 75.1248 96.0526Z" fill="white"/>
<path d="M87.9041 56.3307C87.8495 63.1169 86.9998 69.9148 85.1865 76.4572C83.9777 80.8159 82.4837 85.7633 80.0415 89.4424C78.8995 91.1556 76.7054 92.6863 74.3088 93.4373C73.8433 93.5839 73.3734 93.7051 72.9148 93.7867C71.6749 94.007 70.5113 93.9816 69.5445 93.7084C66.282 92.8244 62.5875 91.2837 58.2713 89.0099C49.6829 84.5009 41.7194 77.9807 34.604 69.6601C33.5618 68.4356 29.3156 64.4165 29.7174 62.8706C29.7994 62.5513 29.9719 62.27 30.2079 62.0327C31.605 60.6069 35.3107 60.5414 36.7216 60.7076C39.4455 61.012 42.1359 61.962 44.8639 61.6619C47.547 61.3785 49.8909 59.9509 52.2378 58.5237C54.515 57.1379 56.7953 55.7526 59.3915 55.4092C62.255 55.0396 65.1494 55.99 68.0144 55.6753C71.5226 55.283 74.5049 53.0753 77.4646 51.1589C79.6507 49.741 83.253 47.4231 86.0385 48.0223C86.2414 48.0694 86.4281 48.1291 86.5939 48.2293C88.7685 49.3541 87.9267 53.9533 87.9041 56.3307Z" fill="#EF3254"/>
<path d="M72.9148 93.7867C71.6749 94.007 70.5113 93.9816 69.5445 93.7084C66.282 92.8244 62.5875 91.2837 58.2713 89.0099C49.6829 84.5009 41.7194 77.9807 34.604 69.6601C33.6511 68.5407 30.0216 65.0864 29.7115 63.3206C29.6824 63.1545 29.6827 63.0035 29.7174 62.8706C29.7994 62.5513 29.9719 62.27 30.2079 62.0327C30.4225 62.3003 30.6336 62.5501 30.8427 62.7355C33.3467 65.0353 36.4975 66.6445 39.8459 67.282C42.026 67.6937 44.2837 67.6911 46.4732 67.302C48.956 66.8607 51.3507 65.9233 53.4483 64.5307C56.4879 62.5102 59.251 59.4687 62.7235 58.8516C63.1437 58.7769 63.5732 58.7383 64.0156 58.7399C66.2992 58.7521 68.4164 59.9238 70.6833 60.2069C71.6147 60.3248 72.5511 60.2861 73.4703 60.1228C75.3198 59.7941 77.1017 58.9597 78.6484 57.8741C80.9632 56.2387 82.8319 54.0799 84.6761 51.9352C85.6066 50.8613 86.5803 49.5572 86.5939 48.2293C87.3673 48.6288 87.7593 49.4677 87.9419 50.4898C88.2732 52.3428 87.9191 54.7983 87.9041 56.3307C87.8495 63.1169 86.9998 69.9148 85.1865 76.4572C83.9777 80.8159 82.4837 85.7633 80.0415 89.4424C78.8995 91.1556 76.7054 92.6863 74.3088 93.4373C73.8433 93.5839 73.3734 93.7051 72.9148 93.7867ZM78.6022 79.0468C78.4099 79.0809 78.2231 79.1403 78.0409 79.2259L77.8652 79.3258C77.4143 79.5868 77.1903 79.764 76.877 80.1893C76.7786 80.3219 76.6838 80.4578 76.5877 80.5919C76.4062 80.8448 76.2315 81.0974 76.0686 81.3624C75.9067 81.6273 75.7448 81.8921 75.5818 82.1562C75.3066 82.6057 75.0021 83.0536 74.8152 83.5483C74.682 83.8709 74.6382 84.2019 74.6821 84.5414C74.6666 84.8896 74.7415 85.2236 74.9062 85.5407C75.0274 85.7272 75.1484 85.9127 75.2686 86.0993C75.4795 86.3657 75.7391 86.5634 76.0455 86.6927C76.2309 86.8214 76.4358 86.8962 76.6613 86.9181C76.9649 87.015 77.2761 87.0352 77.5941 86.9786C77.6203 86.974 77.6464 86.9684 77.6735 86.9626C78.35 86.8114 78.9112 86.4688 79.3286 85.9051C79.6379 85.4892 79.838 84.966 80.0642 84.4963C80.1985 84.2179 80.3338 83.9394 80.468 83.6602C80.6031 83.3807 80.7204 83.0986 80.8344 82.8094C80.8954 82.6573 80.9583 82.5049 81.0162 82.3514C81.2149 81.8255 81.1861 81.5656 81.1579 81.0201L81.1483 80.8244C81.078 80.4344 80.9148 80.088 80.659 79.7861C80.4781 79.558 80.2574 79.3882 79.9949 79.2781C79.7518 79.124 79.4842 79.039 79.1899 79.0217C78.9894 79.0041 78.7935 79.0128 78.6022 79.0468ZM61.04 84.9226C60.902 84.9471 60.7671 84.9904 60.6355 85.0515C60.4416 85.1363 60.2812 85.2606 60.1551 85.4252C60.0049 85.5651 59.8969 85.7353 59.8316 85.9336C59.7337 86.2016 59.7093 86.4768 59.7586 86.7583L59.7742 86.8717L59.7765 86.8828C59.8219 87.0257 59.8676 87.1676 59.9134 87.3104L60.0357 87.5053L60.1587 87.6934L60.2055 87.7441C60.3636 87.9105 60.5355 88.0657 60.7162 88.2078L60.9328 88.355C61.0976 88.4486 61.2683 88.5373 61.4394 88.6201C61.5278 88.6624 61.607 88.6677 61.7141 88.6922C61.8119 88.7145 61.906 88.7403 62.0039 88.7529C62.1459 88.7712 62.2839 88.768 62.4181 88.7441C62.5133 88.7272 62.6067 88.6999 62.6982 88.6614C62.9264 88.6102 63.1285 88.5037 63.3042 88.3419L63.6058 88.0096C63.7466 87.824 63.832 87.6172 63.8643 87.3909C63.9185 87.2429 63.9317 87.0896 63.9044 86.9339C63.9148 86.695 63.8641 86.4669 63.7512 86.2509C63.6688 86.1233 63.5861 85.9958 63.5035 85.8693C63.3038 85.6367 63.0605 85.4671 62.7741 85.3593L62.7169 85.3347L62.6703 85.3197C62.568 85.2963 62.4732 85.2522 62.3762 85.2124L62.0088 85.0213L61.5739 84.9235L61.5525 84.9205L61.4642 84.9043C61.3197 84.8922 61.1782 84.898 61.04 84.9226ZM74.4241 75.5719C74.3388 75.5871 74.2551 75.6116 74.1731 75.6455C74.0354 75.671 73.9121 75.7287 73.8054 75.8193C73.6685 75.8929 73.5562 75.9961 73.4585 76.116C73.3547 76.207 73.2563 76.3009 73.1835 76.4251L73.0887 76.561L73.0726 76.5794C72.9237 76.7761 72.8336 76.9934 72.7997 77.2326C72.7703 77.3607 72.751 77.4047 72.7448 77.5006L72.7345 77.5789C72.706 77.9081 72.7618 78.2223 72.9021 78.5215C72.9587 78.6769 73.0439 78.8078 73.1588 78.9151C73.3059 79.1008 73.4861 79.2381 73.6994 79.3279L73.9053 79.4355C74.2105 79.5467 74.523 79.5744 74.8421 79.5186C74.8793 79.5159 74.9151 79.5105 74.9499 79.5043C75.0812 79.481 75.2017 79.4354 75.3122 79.3654C75.3541 79.3454 75.5986 79.1858 75.7295 79.0948C75.8723 78.995 76.0454 78.793 76.1059 78.698C76.1796 78.5572 76.2525 78.4175 76.3255 78.2787C76.3779 78.1214 76.4133 77.9613 76.4328 77.7991L76.437 77.7519C76.4562 77.3751 76.4288 77.0142 76.2649 76.6689C76.2234 76.5824 76.0637 76.3157 75.9393 76.1927C75.6773 75.9326 75.5277 75.7928 75.1848 75.6544L74.7906 75.5648C74.6648 75.5485 74.5433 75.5507 74.4241 75.5719ZM43.4686 71.6083C43.3239 71.634 43.1911 71.6905 43.0524 71.7481C42.7169 71.887 42.604 72.2467 42.6272 72.5754C42.6787 73.3074 43.2493 73.7768 43.7945 74.1888C44.2438 74.5279 44.7065 74.8414 45.1757 75.1527C45.6297 75.4532 46.0907 75.7419 46.5553 76.0279C47.1114 76.3693 47.6666 76.7476 48.2645 77.0129C48.5033 77.1194 48.7599 77.1406 49.0072 77.0966C49.4754 77.0134 49.9095 76.6973 50.1246 76.2856C50.4635 75.6381 50.2967 74.7573 49.6591 74.3424C49.1287 73.9974 48.516 73.7483 47.9518 73.4586C47.8203 73.3911 47.6885 73.3236 47.5575 73.2559L47.382 73.1642C47.3292 73.1368 47.3096 73.1268 47.3092 73.1268C47.3092 73.1268 47.3176 73.1311 47.3306 73.1385C47.0411 72.9877 46.751 72.84 46.4609 72.6913C45.9784 72.4461 45.4998 72.1964 45.0106 71.966C44.7016 71.8197 44.4281 71.6845 44.0842 71.6295C43.9192 71.6027 43.7612 71.5872 43.5942 71.5947C43.5511 71.5965 43.5097 71.601 43.4686 71.6083ZM84.2908 57.3889C84.2045 57.4042 84.1154 57.4307 84.0218 57.4705C83.2945 57.7769 83.2475 58.7102 83.219 59.3877C83.1977 59.9159 83.149 60.4421 83.0735 60.9645C82.9974 61.4888 82.947 62.0164 82.852 62.5383C82.8328 62.6423 82.8135 62.7464 82.7924 62.8508L82.7559 63.0266C82.7035 63.2429 82.6448 63.4575 82.6232 63.679C82.5892 64.0266 82.6656 64.2878 82.7756 64.6127C82.9804 65.2207 83.6802 65.4669 84.2814 65.36C84.5187 65.3178 84.7414 65.2212 84.9118 65.069C85.5475 64.5032 85.6439 63.6085 85.7731 62.8116C85.867 62.2347 85.9365 61.6563 85.9255 61.0719C85.9133 60.421 85.8778 59.7694 85.7988 59.1236C85.7001 58.3285 85.1987 57.2275 84.2908 57.3889ZM46.1089 68.3806C46.088 68.3844 46.068 68.3889 46.0493 68.3941L46.0058 68.4086L45.9148 68.4364C45.8178 68.4672 45.7203 68.499 45.6233 68.5298C45.4833 68.5905 45.368 68.6797 45.2777 68.7983C45.2014 68.8632 45.1467 68.9425 45.1116 69.0359C45.0315 69.1614 44.9875 69.3008 44.9787 69.4533L44.9669 69.5337L44.961 69.5773C44.9285 69.8047 44.9891 70.0841 45.0875 70.2892C45.1325 70.3828 45.2211 70.4986 45.2897 70.5996L45.3687 70.7182L45.4085 70.7769C45.4805 70.884 45.5868 70.9658 45.6939 71.0406C45.8977 71.1814 46.1226 71.2643 46.3694 71.2882C46.469 71.3082 46.5654 71.3104 46.6588 71.2938C46.6903 71.2882 46.7217 71.2798 46.7529 71.2703C46.8724 71.2327 46.9914 71.1941 47.111 71.1564C47.2828 71.0813 47.4242 70.9711 47.5359 70.8254C47.6291 70.746 47.6969 70.6488 47.7395 70.5338C47.8379 70.379 47.8926 70.2086 47.9031 70.021C47.9219 69.8948 47.9166 69.767 47.8879 69.6377C47.8427 69.3874 47.7378 69.1651 47.5738 68.9717C47.3891 68.753 47.2285 68.6664 46.9726 68.5513L46.7879 68.469L46.7596 68.4566C46.5958 68.3918 46.305 68.3458 46.1089 68.3806Z" fill="#ED1F2D"/>
<path d="M77.5941 86.9786C77.2761 87.0352 76.9649 87.015 76.6613 86.9181C76.4358 86.8962 76.2309 86.8214 76.0455 86.6927C75.7391 86.5634 75.4795 86.3657 75.2686 86.0993C75.1484 85.9127 75.0274 85.7272 74.9062 85.5407C74.7415 85.2236 74.6666 84.8896 74.6821 84.5414C74.6382 84.2019 74.682 83.8709 74.8152 83.5483C75.0021 83.0536 75.3066 82.6057 75.5818 82.1562C75.7448 81.8921 75.9067 81.6273 76.0686 81.3624C76.2315 81.0974 76.4062 80.8448 76.5877 80.5919C76.6838 80.4578 76.7786 80.3219 76.877 80.1893C77.1903 79.764 77.4143 79.5868 77.8652 79.3258L78.0409 79.2259C78.2231 79.1403 78.4099 79.0809 78.6022 79.0468C78.7935 79.0128 78.9894 79.0041 79.1899 79.0217C79.4842 79.039 79.7518 79.124 79.9949 79.2781C80.2574 79.3882 80.4781 79.558 80.659 79.7861C80.9148 80.088 81.078 80.4344 81.1483 80.8244L81.1579 81.0201C81.1861 81.5656 81.2149 81.8255 81.0162 82.3514C80.9583 82.5049 80.8954 82.6573 80.8344 82.8094C80.7204 83.0986 80.6031 83.3807 80.468 83.6602C80.3338 83.9394 80.1985 84.2179 80.0642 84.4963C79.838 84.966 79.6379 85.4892 79.3286 85.9051C78.9112 86.4688 78.35 86.8114 77.6735 86.9626C77.6464 86.9684 77.6203 86.974 77.5941 86.9786Z" fill="#DE1D25"/>
<path d="M74.9499 79.5043C74.9151 79.5105 74.8793 79.5159 74.8421 79.5186C74.523 79.5744 74.2105 79.5467 73.9053 79.4355L73.6994 79.3279C73.4861 79.2381 73.3059 79.1008 73.1588 78.9151C73.0439 78.8078 72.9587 78.6769 72.9021 78.5215C72.7618 78.2223 72.706 77.9081 72.7345 77.5789L72.7448 77.5006C72.751 77.4047 72.7703 77.3607 72.7997 77.2326C72.8336 76.9934 72.9237 76.7761 73.0726 76.5794L73.0887 76.561L73.1835 76.4251C73.2563 76.3009 73.3547 76.207 73.4585 76.116C73.5562 75.9961 73.6685 75.8929 73.8054 75.8193C73.9121 75.7287 74.0354 75.671 74.1731 75.6455C74.2551 75.6116 74.3388 75.5871 74.4241 75.5719C74.5433 75.5507 74.6648 75.5485 74.7906 75.5648L75.1848 75.6544C75.5277 75.7928 75.6773 75.9326 75.9393 76.1927C76.0637 76.3157 76.2234 76.5824 76.2649 76.6689C76.4288 77.0142 76.4562 77.3751 76.437 77.7519L76.4328 77.7991C76.4133 77.9613 76.3779 78.1214 76.3255 78.2787C76.2525 78.4175 76.1796 78.5572 76.1059 78.698C76.0454 78.793 75.8723 78.995 75.7295 79.0948C75.5986 79.1858 75.3541 79.3454 75.3122 79.3654C75.2017 79.4354 75.0812 79.481 74.9499 79.5043Z" fill="#DE1D25"/>
<path d="M62.4181 88.7441C62.2839 88.768 62.1459 88.7712 62.0039 88.7529C61.906 88.7403 61.8119 88.7145 61.7141 88.6922C61.607 88.6677 61.5278 88.6624 61.4394 88.6201C61.2683 88.5373 61.0976 88.4486 60.9328 88.355L60.7162 88.2078C60.5355 88.0657 60.3636 87.9105 60.2055 87.7441L60.1587 87.6934L60.0357 87.5053L59.9134 87.3104C59.8676 87.1676 59.8219 87.0257 59.7765 86.8828L59.7742 86.8717L59.7586 86.7583C59.7093 86.4768 59.7337 86.2016 59.8316 85.9336C59.8969 85.7353 60.0049 85.5651 60.1551 85.4252C60.2812 85.2606 60.4416 85.1363 60.6355 85.0515C60.7671 84.9904 60.902 84.9471 61.04 84.9226C61.1782 84.898 61.3197 84.8922 61.4642 84.9043L61.5525 84.9205L61.5739 84.9235L62.0088 85.0213L62.3762 85.2124C62.4732 85.2522 62.568 85.2963 62.6703 85.3197L62.7169 85.3347L62.7741 85.3593C63.0605 85.4671 63.3038 85.6367 63.5035 85.8693C63.5861 85.9958 63.6688 86.1233 63.7512 86.2509C63.8641 86.4669 63.9148 86.695 63.9044 86.9339C63.9317 87.0896 63.9185 87.2429 63.8643 87.3909C63.832 87.6172 63.7466 87.824 63.6058 88.0096L63.3042 88.3419C63.1285 88.5037 62.9264 88.6102 62.6982 88.6614C62.6067 88.6999 62.5133 88.7272 62.4181 88.7441Z" fill="#DE1D25"/>
<path d="M49.0072 77.0966C48.7599 77.1406 48.5033 77.1194 48.2645 77.0129C47.6666 76.7476 47.1114 76.3693 46.5553 76.0279C46.0907 75.7419 45.6297 75.4532 45.1757 75.1527C44.7065 74.8414 44.2438 74.5279 43.7945 74.1888C43.2493 73.7768 42.6787 73.3074 42.6272 72.5754C42.604 72.2467 42.7169 71.887 43.0524 71.7481C43.1911 71.6905 43.3239 71.634 43.4686 71.6083C43.5097 71.601 43.5511 71.5965 43.5942 71.5947C43.7612 71.5872 43.9192 71.6027 44.0842 71.6295C44.4281 71.6845 44.7016 71.8197 45.0106 71.966C45.4998 72.1964 45.9784 72.4461 46.4609 72.6913C46.751 72.84 47.0411 72.9877 47.3306 73.1385C47.3176 73.1311 47.3092 73.1268 47.3092 73.1268C47.3096 73.1268 47.3292 73.1368 47.382 73.1642L47.5575 73.2559C47.6885 73.3236 47.8203 73.3911 47.9518 73.4586C48.516 73.7483 49.1287 73.9974 49.6591 74.3424C50.2967 74.7573 50.4635 75.6381 50.1246 76.2856C49.9095 76.6973 49.4754 77.0134 49.0072 77.0966Z" fill="#DE1D25"/>
<path d="M84.2814 65.36C83.6802 65.4669 82.9804 65.2207 82.7756 64.6127C82.6656 64.2878 82.5892 64.0266 82.6232 63.679C82.6448 63.4575 82.7035 63.2429 82.7559 63.0266L82.7924 62.8508C82.8135 62.7464 82.8328 62.6423 82.852 62.5383C82.947 62.0164 82.9974 61.4888 83.0735 60.9645C83.149 60.4421 83.1977 59.9159 83.219 59.3877C83.2475 58.7102 83.2945 57.7769 84.0218 57.4705C84.1154 57.4307 84.2045 57.4042 84.2908 57.3889C85.1987 57.2275 85.7001 58.3285 85.7988 59.1236C85.8778 59.7694 85.9133 60.421 85.9255 61.0719C85.9365 61.6563 85.867 62.2347 85.7731 62.8116C85.6439 63.6085 85.5475 64.5032 84.9118 65.069C84.7414 65.2212 84.5187 65.3178 84.2814 65.36Z" fill="#DE1D25"/>
<path d="M46.6588 71.2938C46.5654 71.3104 46.469 71.3082 46.3694 71.2882C46.1226 71.2643 45.8977 71.1814 45.6939 71.0406C45.5868 70.9658 45.4805 70.884 45.4085 70.7769L45.3687 70.7182L45.2897 70.5996C45.2211 70.4986 45.1325 70.3828 45.0875 70.2892C44.9891 70.0841 44.9285 69.8047 44.961 69.5773L44.9669 69.5337L44.9787 69.4533C44.9875 69.3008 45.0315 69.1614 45.1116 69.0359C45.1467 68.9425 45.2014 68.8632 45.2777 68.7983C45.368 68.6797 45.4833 68.5905 45.6233 68.5298C45.7203 68.499 45.8178 68.4672 45.9148 68.4364L46.0058 68.4086L46.0493 68.3941C46.068 68.3889 46.088 68.3844 46.1089 68.3806C46.305 68.3458 46.5958 68.3918 46.7596 68.4566L46.7879 68.469L46.9726 68.5513C47.2285 68.6664 47.3891 68.753 47.5738 68.9717C47.7378 69.1651 47.8427 69.3874 47.8879 69.6377C47.9166 69.767 47.9219 69.8948 47.9031 70.021C47.8926 70.2086 47.8379 70.379 47.7395 70.5338C47.6969 70.6488 47.6291 70.746 47.5359 70.8254C47.4242 70.9711 47.2828 71.0813 47.111 71.1564C46.9914 71.1941 46.8724 71.2327 46.7529 71.2703C46.7217 71.2798 46.6903 71.2882 46.6588 71.2938Z" fill="#DE1D25"/>
<path d="M41.0502 65.6438C40.608 65.7224 40.1406 65.7039 39.6979 65.6306C39.4218 65.5849 39.1473 65.5224 38.8775 65.4465C38.7089 65.3991 38.5518 65.3254 38.4072 65.2263C38.2669 65.1303 38.1485 64.9917 38.0397 64.8601C37.8089 64.5818 37.7304 64.2378 37.8094 63.889C37.8297 63.7441 37.8846 63.6125 37.9744 63.493C38.0876 63.3326 38.2334 63.2089 38.4103 63.1233C38.5804 63.0689 38.7508 62.9873 38.9243 62.9555C38.9261 62.9552 38.9279 62.9549 38.9298 62.9546C39.1375 62.9177 39.3051 62.944 39.5029 62.962C39.6456 62.9734 39.7885 62.9722 39.9316 62.971C40.1554 62.9506 40.3783 62.9197 40.6024 62.8963C40.8497 62.8523 41.0911 62.8733 41.3269 62.96C41.4319 63.0149 41.5372 63.0697 41.6422 63.1246C41.9551 63.3244 42.1373 63.6713 42.2156 64.0221C42.2921 64.3617 42.1821 64.7827 41.9867 65.0632C41.7798 65.3593 41.4425 65.5692 41.0893 65.6359C41.0762 65.6391 41.0634 65.6414 41.0502 65.6438Z" fill="#ED1F2D"/>
<path d="M50.6595 64.7138C50.5885 64.7265 50.5131 64.7302 50.424 64.7199L50.3814 64.7139L50.2824 64.7015L50.0993 64.6789C49.962 64.6656 49.8366 64.6192 49.7236 64.5406C49.636 64.4836 49.5682 64.4105 49.5201 64.3204C49.455 64.2371 49.4155 64.1425 49.4011 64.0358C49.3766 63.896 49.3884 63.7603 49.4369 63.6269L49.5066 63.4597L49.5402 63.3792L49.5561 63.3426C49.6376 63.151 49.7181 63.038 49.8727 62.8974C49.9973 62.7843 50.1096 62.6782 50.2667 62.6009C50.3781 62.5473 50.5007 62.5187 50.6211 62.4876C50.6449 62.4815 50.6686 62.4763 50.6923 62.4721C50.8756 62.4395 51.0581 62.4632 51.2377 62.5232C51.3665 62.5651 51.4769 62.6355 51.5679 62.7325C51.6418 62.7851 51.6988 62.8524 51.7377 62.9336C51.8221 63.0424 51.8746 63.1676 51.8937 63.3073C51.898 63.3995 51.9019 63.4916 51.9056 63.5829C51.8864 63.6744 51.8656 63.7661 51.8443 63.856C51.78 64.0261 51.6794 64.1707 51.5419 64.29L51.5052 64.3255C51.4158 64.4179 51.3351 64.4873 51.2026 64.5438L50.9865 64.6161C50.8628 64.6564 50.7654 64.695 50.6595 64.7138Z" fill="#ED1F2D"/>
<path d="M75.9231 56.6885C75.7972 56.6935 75.6706 56.6995 75.5438 56.7046L75.5218 56.7008C75.5134 56.7023 75.504 56.704 75.4955 56.7055C75.3455 56.7321 75.199 56.7243 75.0553 56.6783C74.95 56.668 74.8537 56.6328 74.7665 56.5719C74.5756 56.4723 74.4326 56.3429 74.3164 56.1623C74.1699 55.9368 74.0935 55.6708 74.119 55.4002C74.1376 55.1947 74.2227 54.9928 74.3305 54.8208L74.4135 54.689C74.5049 54.5014 74.6402 54.3313 74.7907 54.1933L74.9457 54.0583C75.0537 53.9637 75.1619 53.87 75.2699 53.7753L75.4399 53.627C75.5853 53.5035 75.7572 53.4091 75.9182 53.3079C76.048 53.2268 76.1766 53.1449 76.3064 53.0638C76.4385 53.0016 76.574 52.9582 76.7128 52.9335C76.8516 52.9088 76.9947 52.9028 77.1402 52.9156C77.2742 52.946 77.4085 52.9772 77.5433 53.0065C77.9405 53.1342 78.2399 53.4584 78.4313 53.8162C78.5331 54.0138 78.5795 54.2204 78.5698 54.4379C78.5974 54.6478 78.57 54.8529 78.4876 55.0533C78.4216 55.2537 78.3127 55.425 78.1617 55.566C78.0345 55.7318 77.8729 55.8572 77.6779 55.9412C77.5464 56.0178 77.4147 56.0935 77.2832 56.1701C77.1629 56.2389 77.0324 56.2834 76.903 56.3335C76.7673 56.3866 76.6322 56.4377 76.4965 56.4908L76.2847 56.573L75.9231 56.6885Z" fill="#ED1F2D"/>
<path d="M91.2296 5.03968C91.3408 6.03001 91.0867 7.10461 90.3177 8.20494C89.2303 9.75175 87.5533 10.8006 85.9408 11.6899C75.2852 17.6164 21.9449 40.0012 10.2289 43.4554C8.45942 43.9827 6.55525 44.4324 4.6927 44.1239C1.33154 43.5718 0.412415 40.7504 0.899669 38.1695C1.03118 37.4505 1.2776 36.7488 1.60231 36.1261C3.04328 33.3293 6.49755 31.9549 9.3934 30.671C19.3699 26.1908 67.2415 6.1044 77.4266 2.12506C80.3636 0.963536 83.7687 -0.531747 86.7693 0.390113C88.9252 1.04509 90.9851 2.83076 91.2296 5.03968Z" fill="#3E5D80"/>
<path d="M7.84499 44.0464C6.80195 44.2318 5.74063 44.2975 4.6927 44.1239C2.33592 43.7368 1.17985 42.2336 0.867554 40.4808C0.734328 39.7334 0.754061 38.9404 0.899669 38.1695C2.57742 38.3251 4.27173 38.3123 5.9486 38.1526C6.96486 38.061 7.97449 37.9213 8.97682 37.7431C12.6642 37.0878 16.2632 35.9131 19.8165 34.7049C44.2479 26.4327 68.1139 16.4895 91.2296 5.03968C91.3408 6.03001 91.0867 7.10461 90.3177 8.20494C89.2303 9.75175 87.5533 10.8006 85.9408 11.6899C84.9617 12.2345 83.6222 12.9177 81.9891 13.713C67.5108 20.7551 29.8782 36.5497 14.5711 42.0073C12.8015 42.6382 11.3313 43.1298 10.2289 43.4554C10.1065 43.4916 9.98412 43.5279 9.8604 43.5634C9.20233 43.752 8.52749 43.9251 7.84499 44.0464Z" fill="#2D486A"/>
</svg>
