<svg width="133" height="120" viewBox="0 0 133 120" fill="none" xmlns="http://www.w3.org/2000/svg">
<path d="M105.311 93.8841C104.486 94.1291 103.623 94.2866 102.757 94.4501C101.837 94.6223 100.913 94.8014 100.039 95.0977C97.9075 95.8304 96.1506 97.3163 95.0651 99.297C94.2569 100.764 93.8137 102.481 92.9833 103.936C91.6681 106.214 88.6095 107.417 86.0838 108.019C83.2895 108.682 80.2183 108.588 77.2133 107.332C71.3809 104.863 65.5318 102.443 59.7049 100.017C62.5772 90.9319 67.5955 82.9003 74.1766 76.406C75.5109 75.0765 76.9207 73.8193 78.383 72.6229C87.0358 65.5858 97.5956 61.0665 108.999 59.9056C110.195 66.1047 111.373 72.3211 112.598 78.5381C113.245 81.7827 112.665 84.8659 111.406 87.4891C110.135 90.1448 108.182 93.021 105.311 93.8841Z" fill="#F89C9E"/>
<path d="M57.0515 45.1196C56.851 45.2974 56.6364 45.4661 56.429 45.6399C47.7784 52.6874 37.2241 57.2008 25.8155 58.3688C24.6235 52.1622 23.4468 45.9449 22.2162 39.7363C21.5941 36.5343 22.1279 33.5124 23.3449 30.9136C24.445 28.551 26.2473 25.8018 28.74 24.9853C30.0275 24.5666 31.441 24.4347 32.7893 24.1297C33.1001 24.0645 33.412 23.9815 33.709 23.889C35.8672 23.23 37.677 21.8041 38.8267 19.8799C39.7421 18.3474 40.2332 16.5311 41.086 14.9533C42.5166 12.3218 45.7271 10.9911 48.5925 10.2919C51.4152 9.59757 54.5495 9.64887 57.6025 10.9426C63.4336 13.4112 69.2751 15.8267 75.1096 18.2575C71.7369 28.919 65.3967 38.1404 57.0515 45.1196Z" fill="#F89C9E"/>
<path d="M25.0904 54.5825C24.1428 49.635 23.1967 44.6833 22.2162 39.7363C21.5941 36.5343 22.1279 33.5124 23.3449 30.9136C23.5792 30.4108 23.8449 29.8905 24.1428 29.3744C25.2436 27.4678 26.7778 25.628 28.74 24.9853C30.0275 24.5666 31.441 24.4347 32.7893 24.1297C33.2788 24.8689 33.7852 25.5966 34.3086 26.3126C33.9158 26.3855 33.5256 26.47 33.1385 26.5666C32.1561 26.8118 31.1444 27.1094 30.2292 27.5504C29.7588 27.7772 29.3009 28.0266 28.9177 28.3884C28.7203 28.5751 28.5077 28.8162 28.4281 29.0811C28.4024 29.1662 28.3971 29.2549 28.3866 29.3436L28.4008 29.4955C28.3917 29.4495 28.3837 29.4245 28.3761 29.4201C28.3669 29.4148 28.3601 29.4425 28.3533 29.5038C28.3307 29.5906 28.3737 29.6715 28.4455 29.713C28.4585 29.7205 28.4724 29.7265 28.4867 29.7317L28.5617 29.7536L28.6259 29.7906C28.7056 29.8346 28.7892 29.8768 28.8767 29.9018C29.0966 29.9676 29.3283 29.9566 29.5545 29.9302C30.0578 29.8722 30.5137 29.7236 30.9946 29.5773C31.887 29.3046 32.7577 28.9969 33.6704 28.795C34.5112 28.6098 35.155 28.5116 35.9407 28.4413C40.3289 33.8982 45.705 38.5779 51.7016 42.2235C51.3843 42.4501 51.0628 42.6732 50.7388 42.8919C46.4511 45.7687 41.789 47.7546 37.0496 49.6184C34.6955 50.5516 32.3262 51.4527 29.9836 52.4171C30.0309 52.3016 30.0557 52.1774 30.0539 52.0499C30.0482 51.6307 29.8721 51.2437 29.7371 50.8508C29.6152 50.497 29.4933 50.1432 29.3713 49.7895C29.1275 49.082 28.8852 48.3733 28.6394 47.6657C28.401 46.9787 28.1429 46.2976 27.8928 45.615C27.7641 45.2624 27.6378 44.9092 27.5062 44.558C27.3382 44.1093 27.1031 43.7769 26.7569 43.4496C26.721 43.4146 26.6801 43.3848 26.6365 43.3597C26.2634 43.1443 25.6661 43.2662 25.5925 43.7609C25.5302 44.1847 25.4939 44.5796 25.6027 45.0002C25.6958 45.3598 25.834 45.7137 25.948 46.067C26.1782 46.7788 26.3994 47.4937 26.6413 48.2011C26.8761 48.8891 27.1141 49.5749 27.3513 50.2623C27.4732 50.616 27.5952 50.9698 27.7167 51.3243C27.8522 51.7145 27.9482 52.2174 28.1977 52.5479C28.3138 52.7016 28.45 52.8312 28.6052 52.9208C28.6304 52.9354 28.6561 52.9492 28.6826 52.9615C27.4736 53.4754 26.2744 54.0113 25.0904 54.5825ZM31.1687 32.2117C31.0678 32.1535 30.9603 32.1067 30.8473 32.0711C30.6798 32.0222 30.5125 32.0154 30.3446 32.052C30.1752 32.0612 30.0164 32.1102 29.8698 32.2018C29.7736 32.2554 29.679 32.3098 29.5828 32.3634C29.3892 32.4728 29.2188 32.6231 29.0497 32.766C28.8792 32.9112 28.6915 33.0474 28.549 33.22C28.4041 33.3545 28.302 33.5137 28.2447 33.6977C28.1567 33.866 28.1178 34.0464 28.1268 34.2391C28.1421 34.3591 28.1582 34.4795 28.1748 34.5991C28.2159 34.7839 28.2992 34.9451 28.4238 35.0823C28.4879 35.1938 28.5748 35.2816 28.6856 35.3456C28.7448 35.4002 28.8085 35.4471 28.8765 35.4864C28.9721 35.5416 29.0757 35.581 29.1885 35.6064C29.3109 35.622 29.4326 35.6372 29.5543 35.6524C29.8024 35.6499 30.0347 35.5883 30.2505 35.4653C30.4373 35.3377 30.617 35.2029 30.7777 35.0429L31.0264 34.794C31.1887 34.6329 31.3306 34.4631 31.4611 34.2724C31.524 34.1793 31.5882 34.0858 31.6511 33.9927C31.6959 33.8851 31.74 33.777 31.7852 33.6685C31.8353 33.5007 31.8414 33.333 31.8044 33.1658C31.8041 33.0515 31.7749 32.945 31.7184 32.8451C31.6669 32.6818 31.5773 32.5404 31.4497 32.4189C31.3639 32.3397 31.2696 32.27 31.1687 32.2117Z" fill="#F6898B"/>
<path d="M62.9861 101.381C67.5912 95.1406 71.1722 88.172 76.0822 82.1552C76.4024 81.7611 76.7288 81.3706 77.0621 80.984C77.4285 81.4422 77.8099 81.8867 78.2061 82.3163C80.4288 84.7269 83.0573 86.7082 85.8988 88.3488C87.956 89.5365 90.1251 90.5463 92.3335 91.4104C93.018 91.6813 93.7085 91.9383 94.4034 92.1825C94.2685 92.386 94.1748 92.6101 94.1878 92.8684C94.2009 93.144 94.2827 93.389 94.4501 93.611C94.5531 93.7469 94.6875 93.8725 94.8412 93.9612C94.9299 94.0124 95.0256 94.0513 95.1244 94.0727C95.2315 94.0866 95.3391 94.0998 95.4462 94.1138C95.6651 94.1107 95.8696 94.0565 96.06 93.9493C96.1951 93.8917 96.3285 93.8302 96.4645 93.7731C96.6056 93.7139 96.7325 93.6159 96.8657 93.5389C97.0812 93.4146 97.3058 93.3098 97.5329 93.2096C97.5454 93.2056 97.5583 93.2008 97.5708 93.1968C99.28 93.6913 101.012 94.1093 102.757 94.4501C101.837 94.6223 100.913 94.8014 100.039 95.0977C97.9738 95.8074 96.2609 97.2241 95.169 99.1134C95.1342 99.1738 95.0997 99.2354 95.0651 99.297C94.2569 100.764 93.8137 102.481 92.9833 103.936C91.6681 106.214 88.6095 107.417 86.0838 108.019C83.2895 108.682 80.2183 108.588 77.2133 107.332C72.4756 105.326 67.7263 103.353 62.9861 101.381ZM76.7905 101.138C76.3226 100.868 75.8067 100.659 75.3435 100.457C74.3757 100.036 73.4099 99.608 72.4293 99.2161C71.4973 98.8442 70.5661 98.4727 69.6349 98.1012C68.6407 97.7046 67.5359 97.1748 66.444 97.4842C65.7331 97.6863 65.2941 98.5684 65.7142 99.2319C65.9945 99.6751 66.3796 99.9932 66.8139 100.244C67.3834 100.573 68.0382 100.786 68.65 101.009C69.588 101.353 70.5273 101.697 71.4665 102.04C72.4025 102.384 73.3522 102.692 74.2995 103.005C75.2321 103.314 76.397 103.779 77.3779 103.494C77.9209 103.336 78.2506 102.673 77.9332 102.163C77.6616 101.726 77.2492 101.403 76.7905 101.138ZM84.1331 100.24C84.0307 100.181 83.9176 100.135 83.7746 100.105L83.6564 100.084C83.5727 100.068 83.4871 100.052 83.4022 100.037C83.1303 99.987 82.8567 99.9472 82.5809 99.9287C82.4242 99.9177 82.2675 99.8996 82.1106 99.8977C81.8469 99.8953 81.5372 100.003 81.3034 100.122C81.1856 100.181 81.0744 100.261 80.993 100.365C80.8344 100.523 80.7263 100.71 80.6686 100.926C80.6158 101.134 80.6164 101.342 80.6708 101.549C80.7283 101.803 80.8742 102.034 81.0625 102.211L81.1254 102.27C81.2357 102.37 81.3223 102.435 81.4125 102.487C81.5287 102.554 81.6491 102.598 81.8313 102.666C81.9713 102.718 82.1118 102.77 82.2523 102.821C82.3927 102.873 82.5354 102.908 82.6812 102.944L82.915 103.001L83.0147 103.026C83.3115 103.096 83.5541 103.1 83.8489 103.024C84.3636 102.89 84.7752 102.47 84.9084 101.956C84.9732 101.701 84.973 101.447 84.9056 101.193C84.8365 100.94 84.7106 100.719 84.5265 100.531C84.3843 100.417 84.2669 100.317 84.1331 100.24Z" fill="#F6898B"/>
<path d="M66.8139 100.244C66.3796 99.9932 65.9945 99.6751 65.7142 99.2319C65.2941 98.5684 65.7331 97.6863 66.444 97.4842C67.5359 97.1748 68.6407 97.7046 69.6349 98.1012C70.5661 98.4727 71.4973 98.8442 72.4293 99.2161C73.4099 99.608 74.3757 100.036 75.3435 100.457C75.8067 100.659 76.3226 100.868 76.7905 101.138C77.2492 101.403 77.6616 101.726 77.9332 102.163C78.2506 102.673 77.9209 103.336 77.3779 103.494C76.397 103.779 75.2321 103.314 74.2995 103.005C73.3522 102.692 72.4025 102.384 71.4665 102.04C70.5273 101.697 69.588 101.353 68.65 101.009C68.0382 100.786 67.3834 100.573 66.8139 100.244Z" fill="#F25457"/>
<path d="M81.4125 102.487C81.3223 102.435 81.2357 102.37 81.1254 102.27L81.0625 102.211C80.8742 102.034 80.7283 101.803 80.6708 101.549C80.6164 101.342 80.6158 101.134 80.6686 100.926C80.7263 100.71 80.8344 100.523 80.993 100.365C81.0744 100.261 81.1856 100.181 81.3034 100.122C81.5372 100.003 81.8469 99.8953 82.1106 99.8977C82.2675 99.8996 82.4242 99.9177 82.5809 99.9287C82.8567 99.9472 83.1303 99.987 83.4022 100.037C83.4871 100.052 83.5727 100.068 83.6564 100.084L83.7746 100.105C83.9176 100.135 84.0307 100.181 84.1331 100.24C84.2669 100.317 84.3843 100.417 84.5265 100.531C84.7106 100.719 84.8365 100.94 84.9056 101.193C84.973 101.447 84.9732 101.701 84.9084 101.956C84.7752 102.47 84.3636 102.89 83.8489 103.024C83.5541 103.1 83.3115 103.096 83.0147 103.026L82.915 103.001L82.6812 102.944C82.5354 102.908 82.3927 102.873 82.2523 102.821C82.1118 102.77 81.9713 102.718 81.8313 102.666C81.6491 102.598 81.5287 102.554 81.4125 102.487Z" fill="#F25457"/>
<path d="M107.236 80.9159C106.954 80.753 106.737 80.4699 106.637 80.1625C106.489 79.7079 106.513 79.158 106.466 78.6814C106.425 78.2471 106.382 77.8134 106.329 77.3804L106.284 77.0138L106.278 76.9708C106.249 76.755 106.217 76.5376 106.183 76.3216C106.12 75.9108 106.05 75.5013 105.974 75.0925C105.817 74.255 105.633 73.4221 105.424 72.5961C105.305 72.1258 105.217 71.712 105.181 71.2428C105.148 70.8168 105.136 70.3126 105.349 69.9331C105.522 69.6224 105.886 69.5734 106.183 69.7091C106.208 69.7217 106.234 69.7347 106.26 69.7493C106.623 69.9589 106.92 70.4356 107.102 70.7933C107.324 71.227 107.482 71.6775 107.617 72.1443C107.853 72.9617 108.064 73.7867 108.247 74.6184C108.437 75.4709 108.597 76.3281 108.73 77.1895C108.875 78.1328 109.13 79.2039 108.978 80.1539C108.892 80.6925 108.314 81.0347 107.813 81.0592C107.604 81.07 107.408 81.0152 107.236 80.9159Z" fill="#F3666C"/>
<path d="M108.84 87.5665C108.782 87.5325 108.727 87.4921 108.677 87.4455C108.582 87.3908 108.507 87.3159 108.452 87.2208C108.347 87.103 108.276 86.9655 108.24 86.8079L108.198 86.4997C108.196 86.2955 108.227 86.094 108.28 85.8963C108.306 85.7975 108.332 85.6994 108.359 85.6005C108.412 85.402 108.478 85.2157 108.568 85.0281C108.61 84.9401 108.652 84.8525 108.694 84.7644C108.765 84.6291 108.863 84.5219 108.991 84.4425C109.097 84.3456 109.223 84.2808 109.366 84.2475C109.554 84.2062 109.745 84.2062 109.933 84.2455C110.021 84.2654 110.102 84.2972 110.176 84.34C110.229 84.3705 110.279 84.4067 110.325 84.4494C110.412 84.4997 110.48 84.5687 110.529 84.6551C110.626 84.7629 110.691 84.8878 110.725 85.0318L110.762 85.3125C110.766 85.4175 110.771 85.5222 110.775 85.6265C110.784 85.8204 110.735 86.0184 110.708 86.2117C110.693 86.318 110.677 86.4242 110.662 86.5309L110.642 86.6689L110.571 86.8501L110.497 87.0276L110.466 87.1013C110.387 87.2484 110.279 87.3665 110.141 87.4539C110.023 87.5592 109.885 87.6304 109.727 87.6668C109.523 87.7126 109.313 87.7127 109.107 87.6695C109.011 87.6475 108.922 87.6137 108.84 87.5665Z" fill="#F3666C"/>
<path d="M94.4034 92.1825C94.4509 92.109 94.5049 92.0383 94.5608 91.9697C95.1114 91.2897 95.9861 90.9293 96.7893 90.6398C97.1964 90.4926 97.6118 90.3787 98.0451 90.3485C98.2143 90.3362 98.3847 90.3306 98.5543 90.3316C98.8196 90.3329 99.0527 90.3829 99.2936 90.4812C99.3946 90.5233 99.484 90.5626 99.5658 90.6099C99.679 90.6752 99.7766 90.755 99.8683 90.8752C99.9826 91.0268 100.047 91.1846 100.073 91.3736C100.132 91.805 99.9242 92.2173 99.5532 92.4414L99.3329 92.5793C99.1855 92.6705 99.0184 92.7126 98.8557 92.7614C98.6902 92.8116 98.5267 92.867 98.3659 92.9301C98.107 93.0325 97.8357 93.1051 97.5708 93.1968C96.506 92.8889 95.4487 92.5506 94.4034 92.1825Z" fill="#F3666C"/>
<path d="M94.8412 93.9612C94.6875 93.8725 94.5531 93.7469 94.4501 93.611C94.2827 93.389 94.2009 93.144 94.1878 92.8684C94.1748 92.6101 94.2685 92.386 94.4034 92.1825C95.4487 92.5506 96.506 92.8889 97.5708 93.1968C97.5583 93.2008 97.5454 93.2056 97.5329 93.2096C97.3058 93.3098 97.0812 93.4146 96.8657 93.5389C96.7325 93.6159 96.6056 93.7139 96.4645 93.7731C96.3285 93.8302 96.1951 93.8917 96.06 93.9493C95.8696 94.0565 95.6651 94.1107 95.4462 94.1138C95.3391 94.0998 95.2315 94.0866 95.1244 94.0727C95.0256 94.0513 94.9299 94.0124 94.8412 93.9612Z" fill="#F25457"/>
<path d="M35.9407 28.4413C35.3806 27.7449 34.836 27.034 34.3086 26.3126C34.9501 26.1937 35.598 26.106 36.2476 26.0508C37.2521 25.9652 38.5438 25.7865 39.469 26.2442C39.4848 26.2523 39.5005 26.2603 39.5158 26.2691C39.8789 26.4788 40.0466 26.9405 40.003 27.3373C39.9514 27.808 39.6253 28.1151 39.2016 28.2681C38.7031 28.4501 38.1126 28.3518 37.591 28.3565C37.1463 28.3606 36.703 28.3799 36.2599 28.4146C36.1503 28.4227 36.0441 28.4317 35.9407 28.4413Z" fill="#F3666C"/>
<path d="M28.4455 29.713C28.3737 29.6715 28.3307 29.5906 28.3533 29.5038C28.3601 29.4425 28.3669 29.4148 28.3761 29.4201C28.3837 29.4245 28.3917 29.4495 28.4008 29.4955L28.3866 29.3436C28.3971 29.2549 28.4024 29.1662 28.4281 29.0811C28.5077 28.8162 28.7203 28.5751 28.9177 28.3884C29.3009 28.0266 29.7588 27.7772 30.2292 27.5504C31.1444 27.1094 32.1561 26.8118 33.1385 26.5666C33.5256 26.47 33.9158 26.3855 34.3086 26.3126C34.836 27.034 35.3806 27.7449 35.9407 28.4413C35.155 28.5116 34.5112 28.6098 33.6704 28.795C32.7577 28.9969 31.887 29.3046 30.9946 29.5773C30.5137 29.7236 30.0578 29.8722 29.5545 29.9302C29.3283 29.9566 29.0966 29.9676 28.8767 29.9018C28.7892 29.8768 28.7056 29.8346 28.6259 29.7906L28.5617 29.7536L28.4867 29.7317C28.4724 29.7265 28.4585 29.7205 28.4455 29.713Z" fill="#F25457"/>
<path d="M28.8765 35.4864C28.8085 35.4471 28.7448 35.4002 28.6856 35.3456C28.5748 35.2816 28.4879 35.1938 28.4238 35.0823C28.2992 34.9451 28.2159 34.7839 28.1748 34.5991C28.1582 34.4795 28.1421 34.3591 28.1268 34.2391C28.1178 34.0464 28.1567 33.866 28.2447 33.6977C28.302 33.5137 28.4041 33.3545 28.549 33.22C28.6915 33.0474 28.8792 32.9112 29.0497 32.766C29.2188 32.6231 29.3892 32.4728 29.5828 32.3634C29.679 32.3098 29.7736 32.2554 29.8698 32.2018C30.0164 32.1102 30.1752 32.0612 30.3446 32.052C30.5125 32.0154 30.6798 32.0222 30.8473 32.0711C30.9603 32.1067 31.0678 32.1535 31.1687 32.2117C31.2696 32.27 31.3639 32.3397 31.4497 32.4189C31.5773 32.5404 31.6669 32.6818 31.7184 32.8451C31.7749 32.945 31.8041 33.0515 31.8044 33.1658C31.8414 33.333 31.8353 33.5007 31.7852 33.6685C31.74 33.777 31.6959 33.8851 31.6511 33.9927C31.5882 34.0858 31.524 34.1793 31.4611 34.2724C31.3306 34.4631 31.1887 34.6329 31.0264 34.794L30.7777 35.0429C30.617 35.2029 30.4373 35.3377 30.2505 35.4653C30.0347 35.5883 29.8024 35.6499 29.5543 35.6524C29.4326 35.6372 29.3109 35.622 29.1885 35.6064C29.0757 35.581 28.9721 35.5416 28.8765 35.4864Z" fill="#F25457"/>
<path d="M46.6405 14.5855C46.5863 14.5542 46.545 14.4968 46.5721 14.4288C46.6673 14.1932 46.6994 13.9927 46.8322 13.7646C46.9955 13.4817 47.1721 13.2871 47.4313 13.0871C47.9214 12.7095 48.5297 12.4186 49.1173 12.2288C50.2575 11.8606 51.4851 11.6816 52.68 11.6458C53.8853 11.6098 55.1117 11.7399 56.2805 12.0406C57.0642 12.2423 57.9987 12.4985 58.7632 12.9399C59.163 13.1707 59.5163 13.4522 59.7769 13.8024C60.2338 14.4199 59.6098 15.4724 58.8566 15.3963C58.1891 15.329 57.694 15.0054 57.0895 14.7512C56.6495 14.5654 56.1666 14.413 55.6959 14.2891C54.7381 14.0378 53.7604 13.9075 52.7694 13.9062C51.7463 13.9057 50.7418 14.0372 49.7557 14.3098C49.2401 14.4525 48.706 14.5885 48.1804 14.6867C47.9045 14.7373 47.6713 14.7546 47.3927 14.7304C47.1556 14.7086 46.9416 14.636 46.713 14.6101C46.6891 14.6074 46.6635 14.5988 46.6405 14.5855Z" fill="#F3666C"/>
<path d="M28.6052 52.9208C28.45 52.8312 28.3138 52.7016 28.1977 52.5479C27.9482 52.2174 27.8522 51.7145 27.7167 51.3243C27.5952 50.9698 27.4732 50.616 27.3513 50.2623C27.1141 49.5749 26.8761 48.8891 26.6413 48.2011C26.3994 47.4937 26.1782 46.7788 25.948 46.067C25.834 45.7137 25.6958 45.3598 25.6027 45.0002C25.4939 44.5796 25.5302 44.1847 25.5925 43.7609C25.6661 43.2662 26.2634 43.1443 26.6365 43.3597C26.6801 43.3848 26.721 43.4146 26.7569 43.4496C27.1031 43.7769 27.3382 44.1093 27.5062 44.558C27.6378 44.9092 27.7641 45.2624 27.8928 45.615C28.1429 46.2976 28.401 46.9787 28.6394 47.6657C28.8852 48.3733 29.1275 49.082 29.3713 49.7895C29.4933 50.1432 29.6152 50.497 29.7371 50.8508C29.8721 51.2437 30.0482 51.6307 30.0539 52.0499C30.0557 52.1774 30.0309 52.3016 29.9836 52.4171C29.5489 52.5962 29.1148 52.7778 28.6826 52.9615C28.6561 52.9492 28.6304 52.9354 28.6052 52.9208Z" fill="#F25457"/>
<path d="M121.665 50.5364C109.681 62.6825 91.2814 66.5723 79.2186 78.6524C78.1056 79.7681 77.0652 80.9451 76.0822 82.1552C69.5748 90.1282 65.4039 99.7713 58.0896 107.181C50.137 115.237 38.6861 119.896 28.2939 119.356C10.6827 118.447 -1.50944 102.433 1.08387 85.1677C2.64529 74.7499 9.46061 64.3666 18.8479 58.1052C24.5085 54.3229 30.8314 52.0839 37.0496 49.6184C41.789 47.7546 46.4511 45.7687 50.7388 42.8919C64.8573 33.3757 72.3056 15.9252 86.474 6.50608C93.885 1.60398 102.733 -0.661408 110.704 0.317355C124.854 2.06127 133.63 13.6912 132.515 27.7845C131.875 35.863 127.907 44.189 121.665 50.5364Z" fill="white"/>
<path d="M15.3613 115.567C5.16245 109.679 -0.807145 97.756 1.08387 85.1677C1.75234 80.712 3.3807 76.2621 5.76145 72.1385C8.94561 66.6216 13.4758 61.6882 18.8479 58.1052C24.5085 54.3229 30.8314 52.0839 37.0496 49.6184C42.6854 60.7371 51.6733 70.0789 62.4519 76.3029C62.6759 76.4322 62.9001 76.5596 63.1258 76.6859C67.2273 78.9866 71.5805 80.8353 76.0822 82.1552C69.5748 90.1282 65.4039 99.7713 58.0896 107.181C50.137 115.237 38.6861 119.896 28.2939 119.356C23.5234 119.11 19.1508 117.755 15.3613 115.567Z" fill="#FDE3E3"/>
<path d="M121.487 11.3092L121.346 11.2003C120.736 10.587 120.076 10.0104 119.388 9.48579C119.091 9.2599 119.034 8.83571 119.26 8.53999C119.485 8.24186 119.911 8.19425 120.205 8.41203C120.943 8.97361 121.648 9.59177 122.304 10.2497C122.567 10.5134 122.565 10.9396 122.301 11.203C122.081 11.4235 121.745 11.4579 121.487 11.3092ZM110.906 5.72104C110.662 5.5798 110.523 5.29388 110.582 5.00158C110.657 4.63709 111.014 4.40185 111.378 4.47595C112.299 4.66367 113.202 4.90493 114.062 5.19026C114.406 5.30939 114.609 5.68862 114.491 6.04339C114.372 6.39696 113.99 6.58839 113.636 6.47064C112.827 6.20218 111.977 5.97514 111.108 5.79806L110.906 5.72104ZM126.377 19.2901C126.239 19.2102 126.129 19.0814 126.075 18.92C125.798 18.0922 125.467 17.2787 125.094 16.5012C124.931 16.1656 125.073 15.7624 125.408 15.601C125.745 15.4381 126.15 15.5822 126.308 15.9148C126.708 16.744 127.061 17.6104 127.354 18.4913C127.473 18.8441 127.282 19.2273 126.928 19.3449C126.738 19.4087 126.538 19.3828 126.377 19.2901ZM101.511 5.55736C101.34 5.45849 101.213 5.2856 101.181 5.07446C101.126 4.70731 101.378 4.36211 101.746 4.3067C102.662 4.16713 103.585 4.06788 104.492 4.01432C104.861 3.99144 105.182 4.27449 105.204 4.64675C105.227 5.01912 104.943 5.3382 104.572 5.3614C103.707 5.41229 102.825 5.50647 101.95 5.64065C101.793 5.6648 101.64 5.63195 101.511 5.55736ZM92.52 8.34131C92.4045 8.27466 92.3085 8.17437 92.247 8.0461C92.0877 7.70947 92.2312 7.30722 92.5691 7.14755C93.3922 6.75639 94.2437 6.39379 95.0993 6.06825C95.449 5.93579 95.8386 6.11186 95.9704 6.45909C96.1021 6.8083 95.927 7.19642 95.5796 7.3302C94.7572 7.64232 93.9375 7.99059 93.1465 8.36667C92.9377 8.46527 92.705 8.44812 92.52 8.34131ZM127.502 28.6056C127.285 28.4803 127.147 28.2394 127.165 27.9727C127.229 27.0911 127.246 26.2078 127.218 25.348C127.204 24.975 127.496 24.6623 127.869 24.6502C128.236 24.6383 128.552 24.9278 128.565 25.3011C128.596 26.209 128.578 27.1405 128.512 28.0687C128.485 28.4404 128.163 28.72 127.792 28.6942C127.686 28.6863 127.587 28.6546 127.502 28.6056ZM84.6352 13.4938L84.4578 13.3455C84.2174 13.061 84.2522 12.6336 84.5375 12.3936C85.2371 11.8017 85.9526 11.2332 86.684 10.6902C86.983 10.4673 87.4037 10.5277 87.6283 10.8307C87.85 11.1299 87.7875 11.5525 87.4885 11.7754C86.7788 12.3003 86.0869 12.8509 85.4082 13.4243C85.1861 13.6131 84.8745 13.6319 84.6352 13.4938ZM125.253 37.7332C124.962 37.5655 124.835 37.2047 124.969 36.8876C125.311 36.0769 125.621 35.2448 125.888 34.4145C126.003 34.0599 126.384 33.8656 126.738 33.9806C127.089 34.0935 127.287 34.4739 127.173 34.8301C126.892 35.6964 126.569 36.5656 126.212 37.4115C126.067 37.7548 125.671 37.9157 125.328 37.7705L125.253 37.7332ZM77.9642 20.1686L77.8546 20.09C77.574 19.8434 77.5466 19.4178 77.7935 19.1384C78.3967 18.452 79.0042 17.7794 79.618 17.1206C79.8723 16.8495 80.2993 16.8321 80.5722 17.0885C80.844 17.3433 80.8595 17.7701 80.6051 18.0432C79.9991 18.6902 79.4005 19.3527 78.807 20.0293C78.591 20.2746 78.2364 20.3257 77.9642 20.1686ZM120.403 45.803L120.315 45.742C120.025 45.5082 119.979 45.0835 120.214 44.7939C120.768 44.1097 121.301 43.397 121.796 42.6741C122.008 42.3668 122.436 42.2973 122.734 42.4998C123.042 42.7101 123.119 43.1296 122.908 43.4373C122.394 44.1891 121.839 44.931 121.264 45.6427C121.051 45.904 120.684 45.9654 120.403 45.803ZM71.9404 27.4454L71.8542 27.3864C71.5637 27.1534 71.5164 26.7286 71.7501 26.4385L73.4442 24.3322C73.678 24.0421 74.1095 23.9957 74.3927 24.2325C74.6823 24.467 74.7276 24.8917 74.4924 25.1809L72.8025 27.2816C72.5909 27.5457 72.2233 27.6087 71.9404 27.4454ZM113.577 52.2925C113.5 52.2483 113.432 52.1892 113.375 52.1146C113.151 51.8172 113.209 51.394 113.507 51.1695C114.217 50.6339 114.91 50.0807 115.581 49.5092C115.865 49.2664 116.29 49.3025 116.533 49.5849C116.774 49.8687 116.739 50.2949 116.456 50.5361C115.764 51.1254 115.05 51.6948 114.321 52.247C114.098 52.4159 113.803 52.4231 113.577 52.2925ZM105.643 57.4032C105.543 57.3454 105.455 57.2611 105.393 57.1522C105.209 56.8287 105.322 56.417 105.646 56.2328C106.427 55.7881 107.2 55.3382 107.961 54.8804C108.281 54.688 108.693 54.7895 108.887 55.1104C109.079 55.4299 108.976 55.8446 108.657 56.0366C107.886 56.499 107.105 56.9552 106.314 57.4056C106.098 57.5282 105.843 57.5189 105.643 57.4032ZM65.946 34.7473L65.8406 34.6721C65.5582 34.4285 65.5276 34.0032 65.7711 33.7208C66.3561 33.0412 66.9342 32.3578 67.5051 31.6691C67.7434 31.3816 68.1714 31.3464 68.4555 31.5818C68.7422 31.8196 68.7811 32.2447 68.544 32.5319C67.9673 33.2253 67.3848 33.9165 66.7927 34.6031C66.5773 34.8508 66.2204 34.9057 65.946 34.7473ZM97.3281 61.8774C97.2204 61.8152 97.1308 61.7247 97.0691 61.6075C96.8951 61.2767 97.0212 60.8695 97.3512 60.6951L99.7366 59.4394C100.068 59.2667 100.478 59.3965 100.648 59.7212C100.823 60.0504 100.697 60.4589 100.368 60.6337L97.9791 61.8904C97.768 62.0019 97.5208 61.9886 97.3281 61.8774ZM59.4462 41.5933L59.2899 41.4704C59.0361 41.1985 59.0502 40.7714 59.3218 40.5164C59.9738 39.9062 60.6119 39.2848 61.2382 38.6536C61.501 38.3874 61.9267 38.3845 62.1928 38.6493C62.4575 38.9111 62.4595 39.3384 62.1968 39.6026C61.5606 40.2474 60.9088 40.8802 60.2438 41.5023C60.0222 41.7097 59.697 41.738 59.4462 41.5933ZM89.0506 66.4249C88.952 66.368 88.8687 66.2862 88.8065 66.1821C88.6173 65.8618 88.7241 65.4475 89.0451 65.2587C89.8265 64.7986 90.61 64.3489 91.3978 63.9078C91.7254 63.7269 92.1362 63.8417 92.3164 64.167C92.499 64.4915 92.383 64.9026 92.0568 65.0843C91.2792 65.5221 90.5031 65.9659 89.7307 66.421C89.5122 66.5487 89.254 66.5423 89.0506 66.4249ZM52.0489 47.4481C51.9586 47.396 51.8804 47.3233 51.8199 47.2303C51.6176 46.9168 51.7068 46.4994 52.0195 46.2967C52.2087 46.1756 52.3953 46.0519 52.5804 45.9254C53.1335 45.5536 53.6749 45.172 54.2057 44.7823C54.5063 44.5635 54.9299 44.6296 55.1481 44.9279C55.3684 45.2294 55.3044 45.6511 55.0036 45.8719C54.458 46.2714 53.9018 46.6628 53.3363 47.0437C53.1434 47.1749 52.9482 47.3028 52.7535 47.4299C52.5326 47.5725 52.2606 47.5704 52.0489 47.4481ZM81.1923 71.6518C81.1173 71.6085 81.0508 71.5507 80.9936 71.4769C80.7669 71.1809 80.8243 70.7584 81.1195 70.5313C81.8436 69.978 82.5777 69.4427 83.3197 68.9221C83.626 68.7075 84.0459 68.7818 84.2589 69.0872C84.4716 69.3915 84.3981 69.8118 84.0938 70.0265C83.3675 70.5358 82.6495 71.061 81.9399 71.6033C81.7168 71.7742 81.4208 71.7837 81.1923 71.6518ZM43.7395 51.9131C43.621 51.8447 43.5228 51.7411 43.4617 51.6069C43.3088 51.2679 43.4594 50.8676 43.7988 50.714C44.6077 50.3493 45.414 49.9697 46.2176 49.5734C46.5523 49.4069 46.9576 49.5471 47.1216 49.8792C47.2866 50.213 47.1496 50.6181 46.8162 50.7824C45.9986 51.1869 45.1766 51.5726 44.3551 51.9433C44.1489 52.0373 43.9207 52.0177 43.7395 51.9131ZM74.2199 78.0027L74.1028 77.9178C73.828 77.6664 73.8077 77.2408 74.0588 76.9648C74.5649 76.4059 75.0883 75.856 75.6279 75.3133L75.9571 74.9886C76.2242 74.729 76.6463 74.7322 76.911 75.0012C77.1706 75.2683 77.1667 75.6952 76.8992 75.9556L76.581 76.2683C76.0587 76.7934 75.5504 77.3296 75.0559 77.8718C74.839 78.1115 74.489 78.1581 74.2199 78.0027ZM35.0009 55.4901C34.8718 55.4155 34.7668 55.2989 34.7089 55.1503C34.5747 54.8037 34.7469 54.4118 35.0943 54.278L37.6045 53.2952C37.9512 53.1591 38.3418 53.3316 38.4782 53.6763C38.6136 54.0226 38.4441 54.415 38.0963 54.5496L35.5824 55.5353C35.384 55.6124 35.1707 55.5881 35.0009 55.4901ZM26.2996 59.1528C26.1857 59.0871 26.09 58.988 26.0296 58.8614C25.8674 58.5262 26.0086 58.1226 26.3439 57.9604C27.1567 57.5694 27.9818 57.1926 28.8204 56.8276C29.1631 56.6789 29.5583 56.8348 29.7079 57.1759C29.8582 57.5176 29.7011 57.9151 29.3596 58.0634C28.5383 58.4231 27.7287 58.7925 26.9289 59.1768C26.7212 59.277 26.4853 59.2601 26.2996 59.1528ZM68.421 85.4481L68.3752 85.4196C68.0679 85.2085 67.9903 84.7886 68.2013 84.4813C68.7115 83.7372 69.2321 82.9961 69.7694 82.2615C69.9892 81.9603 70.4324 81.9094 70.7108 82.1139C71.0132 82.3334 71.0785 82.7553 70.8587 83.0565C70.3311 83.7814 69.8162 84.5126 69.3127 85.2453C69.1124 85.5374 68.7222 85.622 68.421 85.4481ZM18.2713 64.0879C18.2002 64.0468 18.1361 63.9936 18.0817 63.9254C17.8488 63.635 17.8957 63.2095 18.1861 62.9766C18.9023 62.4034 19.6465 61.8525 20.3969 61.3419C20.7054 61.1306 21.1286 61.215 21.3339 61.518C21.544 61.8268 21.4638 62.2463 21.1562 62.4561C20.4357 62.9483 19.7191 63.4764 19.0301 64.0306C18.8066 64.2094 18.5052 64.2229 18.2713 64.0879ZM63.2833 93.374L63.2573 93.359C62.9427 93.157 62.8518 92.7407 63.0534 92.4269L64.4974 90.1517C64.6967 89.8366 65.132 89.7587 65.4287 89.9423C65.743 90.1411 65.8371 90.5572 65.6386 90.8728L64.1883 93.1535C63.9936 93.459 63.5944 93.5537 63.2833 93.374ZM11.7454 70.8801L11.6789 70.8366C11.3797 70.615 11.3169 70.1924 11.5385 69.8933C12.0866 69.1558 12.6627 68.4334 13.2544 67.7475C13.4969 67.4635 13.9255 67.4378 14.2051 67.6756C14.4875 67.9192 14.5201 68.3448 14.2765 68.6271C13.7068 69.289 13.1517 69.9857 12.623 70.6967C12.4164 70.975 12.0367 71.0483 11.7454 70.8801ZM57.9219 101.145L57.8421 101.091C57.5486 100.862 57.497 100.437 57.7266 100.144C58.2733 99.4493 58.8038 98.7352 59.3252 98.0068C59.5432 97.7035 59.9672 97.6487 60.2663 97.851C60.5686 98.0672 60.6389 98.4891 60.423 98.7925C59.8895 99.5364 59.347 100.266 58.7886 100.977C58.5784 101.244 58.2071 101.31 57.9219 101.145ZM7.16623 79.1082C6.88262 78.9444 6.75335 78.5946 6.87661 78.2804C7.20425 77.434 7.57592 76.5855 7.97761 75.7573C8.14126 75.4227 8.54436 75.2823 8.87944 75.4452C9.208 75.5982 9.3541 76.0108 9.1923 76.3475C8.80642 77.143 8.45021 77.9577 8.13258 78.7691C7.99822 79.1166 7.60746 79.2885 7.26042 79.1534L7.16623 79.1082ZM51.3186 107.865C51.2452 107.823 51.1797 107.767 51.125 107.698C50.8943 107.403 50.9462 106.98 51.24 106.75C51.9271 106.213 52.6056 105.636 53.258 105.039C53.531 104.787 53.9564 104.808 54.2106 105.081C54.4611 105.355 54.443 105.782 54.168 106.034C53.4916 106.654 52.7862 107.253 52.0716 107.813C51.8491 107.988 51.5502 107.999 51.3186 107.865ZM5.13907 88.2918C4.92731 88.1696 4.78983 87.9363 4.80283 87.6737C4.84843 86.7755 4.93811 85.8681 5.07138 84.9787C5.12591 84.6107 5.47183 84.3293 5.84068 84.3842C6.20997 84.4384 6.46708 84.754 6.4142 85.121C6.27814 86.0241 6.19316 86.8863 6.15092 87.7415C6.13251 88.1142 5.81557 88.4 5.44415 88.3813C5.33293 88.3762 5.23004 88.3443 5.13907 88.2918ZM43.2189 112.679C43.0965 112.608 42.9959 112.5 42.9362 112.362C42.789 112.02 42.9457 111.623 43.2879 111.475C44.0967 111.126 44.9012 110.743 45.6809 110.337C46.0155 110.165 46.422 110.298 46.5919 110.623C46.7639 110.954 46.6358 111.361 46.3052 111.533C45.496 111.955 44.661 112.352 43.8242 112.714C43.6193 112.801 43.397 112.782 43.2189 112.679ZM6.34206 97.6096C6.20063 97.528 6.08909 97.3963 6.03585 97.229C5.75966 96.355 5.52498 95.455 5.33782 94.554C5.26127 94.1887 5.49631 93.831 5.86114 93.7553C6.22642 93.6787 6.58287 93.914 6.65866 94.2789C6.83736 95.1363 7.06084 95.9921 7.32298 96.8234C7.43494 97.1785 7.23781 97.557 6.88344 97.6694C6.69518 97.7289 6.49954 97.7006 6.34206 97.6096ZM34.1447 115.199C33.9681 115.097 33.8412 114.917 33.8128 114.7C33.7646 114.33 34.0269 113.992 34.3948 113.945C35.2613 113.833 36.1376 113.682 36.9998 113.497C37.364 113.418 37.7239 113.65 37.8028 114.014C37.8803 114.378 37.6483 114.737 37.2853 114.815C36.3854 115.009 35.4711 115.166 34.5687 115.283C34.4157 115.303 34.2686 115.27 34.1447 115.199ZM11.2066 106.509L11.0264 106.357C10.8599 106.157 10.696 105.956 10.5351 105.751C9.96799 105.033 9.43071 104.272 8.93743 103.49C8.7377 103.174 8.83184 102.758 9.14751 102.559C9.4621 102.359 9.88058 102.457 10.0769 102.77C10.5465 103.512 11.0565 104.233 11.5938 104.915C11.7482 105.11 11.9047 105.303 12.0618 105.492C12.3013 105.778 12.2623 106.204 11.9774 106.443C11.7531 106.628 11.4452 106.646 11.2066 106.509ZM24.7535 114.83C24.5051 114.687 24.3665 114.394 24.4308 114.099C24.5136 113.735 24.8738 113.506 25.2374 113.588C26.087 113.778 26.9578 113.924 27.8255 114.022C28.1966 114.066 28.4626 114.398 28.4202 114.768C28.3786 115.138 28.0462 115.405 27.6758 115.364C26.7594 115.26 25.8397 115.105 24.9433 114.904L24.7535 114.83ZM17.9522 112.192C17.3182 111.823 16.7106 111.443 16.1135 111.026C15.8071 110.814 15.7319 110.393 15.9448 110.088C16.1566 109.781 16.5865 109.709 16.8832 109.919C17.45 110.313 18.0303 110.68 18.6263 111.023C18.7891 111.117 18.9517 111.207 19.1149 111.296C19.413 111.482 19.5634 111.882 19.3867 112.211C19.2108 112.538 18.8008 112.66 18.4722 112.483C18.2983 112.389 18.1242 112.291 17.9522 112.192Z" fill="#F57474"/>
<path d="M69.7721 62.0422C54.8236 74.2054 41.6456 82.7652 40.3397 81.1591C39.0325 79.5533 50.093 68.3918 65.0419 56.2279C79.9908 44.0639 93.1679 35.5056 94.4755 37.1107C95.7815 38.7168 84.7217 49.8787 69.7721 62.0422Z" fill="#3E5D80"/>
</svg>
