<svg width="167" height="119" viewBox="0 0 167 119" fill="none" xmlns="http://www.w3.org/2000/svg">
<path d="M124.273 22.6852C122.838 19.3685 120.379 16.6439 117.299 15.2301C114.984 14.1678 112.574 13.9809 110.695 14.717C107.769 15.862 105.982 19.6623 106.866 22.8577C107.737 26.0023 111.013 28.5043 114.477 28.6892C117.877 28.8722 121.415 27.0253 123.492 23.9853C123.779 23.5687 124.038 23.1325 124.273 22.6852ZM160.869 11.2748C162.115 13.3377 163.152 15.6276 163.936 18.0874C166.103 24.8701 166.292 32.2466 166.443 38.174C166.467 39.1351 165.709 39.9338 164.748 39.9582C163.787 39.9827 162.988 39.2267 162.964 38.2638C162.818 32.558 162.637 25.456 160.624 19.1459C158.532 12.5947 154.493 7.47116 149.541 5.09311C143.977 2.4209 136.969 3.6452 133.587 7.87872C131.67 10.2769 130.858 13.3805 129.994 16.6652C129.454 18.729 128.9 20.8367 128.046 22.8406C128.857 25.2105 129.246 27.7696 129.126 30.3564C128.814 37.0392 125.331 43.8816 119.564 49.1263C115.112 53.1765 109.355 56.4179 101.45 59.3302C100.55 59.6613 99.5587 59.2086 99.2158 58.3003C98.8858 57.3981 99.3458 56.3983 100.249 56.0664C107.718 53.3134 113.112 50.291 117.223 46.5511C122.311 41.9247 125.383 35.9608 125.649 30.1942C125.698 29.1449 125.648 28.1016 125.506 27.0818C122.694 30.4226 118.43 32.3863 114.292 32.1642C109.32 31.8988 104.785 28.3735 103.515 23.7865C102.135 18.814 104.787 13.2917 109.426 11.478C112.18 10.4001 115.58 10.6148 118.749 12.0668C121.653 13.3995 124.112 15.6481 125.909 18.4261C126.162 17.5652 126.394 16.6812 126.631 15.7815C127.544 12.291 128.493 8.68228 130.869 5.70468C135.292 0.168005 143.967 -1.44398 151.046 1.95633C154.94 3.82629 158.335 7.08553 160.869 11.2748Z" fill="#3E5D80"/>
<path d="M111.854 70.153C112.347 74.7926 109.355 79.9026 105.018 81.9148C102.909 82.9136 100.657 83.1566 98.429 82.9797C96.9695 86.3794 93.9463 89.2409 90.4626 90.2297C87.4005 91.0884 84.1281 90.4347 81.6887 88.6836C80.2395 94.5506 77.4391 100.6 72.2357 103.685C67.4233 106.528 61.2225 105.704 57.5059 102.226C57.3887 102.411 57.2701 102.596 57.1662 102.777L57.138 102.784C56.0556 104.419 54.5205 105.733 52.757 106.486C51.0776 107.214 49.211 107.415 47.4872 107.073C45.6378 110.043 42.9216 112.516 39.7732 113.903C35.5565 115.73 30.7171 115.484 26.9775 113.445C13.9224 123.58 5.74727 117.771 1.59269 109.975C1.2865 109.402 1.03113 108.799 0.815193 108.172C-0.439314 104.317 0.359455 99.8933 2.65295 96.5878C4.5262 93.8703 7.40893 91.9014 10.5068 91.0632C11.3886 86.8283 13.1357 82.8034 16.4499 80C20.7034 76.3329 27.0257 75.9178 31.3971 78.4863C32.1601 76.4655 33.547 74.6563 35.3233 73.4452C36.9166 72.4045 38.7394 71.8652 40.5451 71.8334C40.66 71.5286 40.7908 71.2179 40.9487 70.9014C42.2409 68.0658 44.3518 65.4973 46.9598 63.754C50.0592 61.6804 53.7694 60.799 57.2369 61.1564C58.6291 57.2258 61.4287 53.7085 65.0089 51.6115C68.6392 49.4706 72.9179 48.8318 76.752 49.7616C79.1009 45.7552 82.2411 42.3734 86.4685 41.1389C89.9164 40.1296 93.6389 40.8763 96.204 43.0804C97.6743 44.3442 98.7068 46.0781 99.2767 48.0136C101.52 48.6416 103.578 49.8832 105.078 51.6435C105.44 52.0804 105.78 52.5516 106.082 53.0493C107.82 55.9182 108.329 59.6079 107.516 63.0764C109.87 64.6198 111.563 67.2126 111.854 70.153Z" fill="white"/>
<path d="M37.7446 114.611C37.5088 114.675 37.2714 114.733 37.0328 114.786C37.2714 114.733 37.5088 114.675 37.7461 114.61L37.7446 114.611ZM69.1991 104.962C65.0339 106.091 60.4768 105.007 57.5059 102.226C57.3887 102.411 57.2701 102.596 57.1662 102.777L57.138 102.784C57.1599 102.412 57.124 102.056 57.069 101.735C57.0174 101.262 56.9358 100.795 56.8126 100.34C57.1211 100.18 57.3922 100 57.6348 99.7675C58.1378 99.4325 58.5125 99.0112 58.7814 98.4817L58.9151 98.2466L58.9281 98.1826C59.0319 98.0017 59.125 97.8397 59.1612 97.6325C59.4149 97.1055 59.5074 96.5473 59.4848 95.9582L59.4836 95.8359L59.7847 95.6017C60.6669 95.0272 61.3418 94.251 61.8085 93.27C62.0567 92.6697 62.3095 92.022 62.5364 91.3956C62.8673 90.0249 62.8518 88.6732 62.4902 87.337C62.4498 87.1347 62.4069 86.9171 62.3639 86.6995C62.2564 86.3021 62.0946 85.9337 61.9388 85.5811C62.2133 85.5546 62.4833 85.5055 62.7457 85.4344C63.2233 85.3052 63.6826 85.1029 64.1306 84.8353C64.539 84.4797 64.9913 84.1281 65.4 83.774C65.7132 83.3551 66.0274 82.9342 66.3347 82.4994C66.6189 82.0262 66.8058 81.5347 66.8962 81.0217C68.8429 79.217 70.1733 76.7578 70.5994 74.1327C73.3976 75.069 76.5462 76.1062 79.4897 75.9974C80.6068 75.9498 81.7288 75.7846 82.8113 75.4917C84.5805 75.013 86.2462 74.1931 87.6128 72.991C89.8142 71.0394 91.1423 67.9952 90.6644 65.1054C92.3572 65.2855 94.102 65.1285 95.7747 64.6759C98.3685 63.9742 100.79 62.5647 102.58 60.6161C104.485 58.5282 105.707 55.834 106.082 53.0493C106.674 54.024 107.123 55.0947 107.425 56.2177C108.014 58.401 108.053 60.7871 107.516 63.0764C109.456 64.3482 110.947 66.3339 111.575 68.6387C111.708 69.1311 111.804 69.6367 111.854 70.153C112.347 74.7926 109.355 79.9026 105.018 81.9148C104.409 82.2038 103.785 82.4297 103.155 82.6003C101.607 83.0192 100.012 83.1053 98.429 82.9797C96.9695 86.3794 93.9463 89.2409 90.4626 90.2297C90.4315 90.2381 90.4003 90.2466 90.3707 90.2546C87.3365 91.0756 84.1043 90.4173 81.6887 88.6836C80.2395 94.5506 77.4391 100.6 72.2357 103.685C71.2699 104.257 70.2461 104.679 69.1991 104.962ZM17.8745 118.335C9.98958 120.468 4.6809 115.771 1.59269 109.975C4.67849 115.762 9.98325 120.469 17.8797 118.33C19.0319 118.019 20.2388 117.562 21.5032 116.941C20.2377 117.563 19.0283 118.023 17.8745 118.335ZM29.4787 114.495C28.6089 114.227 27.7711 113.878 26.9832 113.448C26.9858 113.446 26.9884 113.444 26.9924 113.441C27.7763 113.873 28.61 114.226 29.4787 114.495ZM45.2596 109.969C46.094 109.076 46.8413 108.098 47.4832 107.058C48.1271 107.191 48.7919 107.248 49.4583 107.229C48.7931 107.253 48.1295 107.2 47.4872 107.073C46.8437 108.106 46.0948 109.079 45.2596 109.969ZM53.9567 105.867C54.1736 105.733 54.3877 105.589 54.5939 105.44C55.5865 104.714 56.4553 103.808 57.138 102.784C56.3102 104.036 55.2149 105.1 53.9567 105.867Z" fill="#FDE3E3"/>
<path d="M66.8221 77.7011L66.8575 77.8904C67.1155 78.6737 67.1581 79.4547 66.9923 80.2476C66.9865 80.5086 66.9619 80.7588 66.8958 81.0202C66.8054 81.5332 66.6189 82.0262 66.3347 82.4994C66.0274 82.9342 65.7132 83.3551 65.4 83.774C64.9913 84.1281 64.539 84.4797 64.1306 84.8353C63.4362 85.2508 62.7114 85.5074 61.9388 85.5811C62.0946 85.9337 62.2564 86.3021 62.3639 86.6995C62.4069 86.9171 62.4498 87.1347 62.4902 87.337C62.8518 88.6732 62.8673 90.0249 62.5364 91.3956C62.3095 92.022 62.0567 92.6697 61.8085 93.27C61.3418 94.251 60.6669 95.0272 59.7847 95.6017L59.4836 95.8359L59.4848 95.9582C59.5074 96.5473 59.4149 97.1055 59.1612 97.6325C59.125 97.8397 59.0319 98.0017 58.9281 98.1826L58.9151 98.2466L58.7814 98.4817C58.5125 99.0112 58.1378 99.4325 57.6348 99.7675C57.3922 100 57.1211 100.18 56.8126 100.34C56.9358 100.795 57.0174 101.262 57.069 101.735C57.124 102.056 57.1599 102.412 57.138 102.784C56.4553 103.808 55.5865 104.714 54.5939 105.44C54.0201 105.854 53.4011 106.219 52.761 106.5C51.0964 107.225 49.211 107.415 47.4832 107.058C45.6378 110.043 42.9257 112.531 39.788 113.899C35.5417 115.734 30.7023 115.488 26.9924 113.441C13.9076 123.585 5.74365 117.758 1.59269 109.975C1.2865 109.402 1.03113 108.799 0.815193 108.172C-0.341306 104.627 0.248317 100.547 2.16065 97.3624C2.30708 97.1095 2.47981 96.8479 2.64361 96.6063C4.51137 93.8744 7.41826 91.883 10.5068 91.0632C11.3926 86.8432 13.1357 82.8034 16.4351 80.004C20.6994 76.3181 27.0257 75.9179 31.3934 78.473C32.1561 76.4507 33.547 74.6563 35.3382 73.4412C36.2958 72.816 37.3774 72.3546 38.4798 72.0882C39.0258 71.9707 39.5711 71.898 40.1248 71.8564C40.3481 71.8406 40.4515 71.8285 40.6678 71.8925C40.8463 71.9349 40.9829 72.1574 41.1852 72.0581L41.2931 71.9509C41.5916 71.6425 41.8199 71.245 42.2013 71.0193C42.8072 70.6118 43.4777 70.3842 44.1984 70.342C44.8626 70.2085 45.553 70.2191 46.2418 70.4003C46.9182 70.5356 47.5357 70.8412 48.0683 71.2923C48.6769 71.6768 49.1511 72.1883 49.5293 72.8037C49.6637 73.0713 49.7649 73.3336 49.8568 73.6143C52.0993 72.885 54.655 73.5368 56.2337 75.2598C56.606 74.7771 57.0634 74.3796 57.6134 74.0478C58.5636 73.501 59.6259 73.1976 60.7315 73.1722C61.2651 73.2268 61.7987 73.2814 62.3344 73.3497C63.3794 73.6001 64.3141 74.1255 65.124 74.866C65.9367 75.6695 66.5076 76.5973 66.8221 77.7011Z" fill="#EF3254"/>
<path d="M37.7477 114.61C37.7477 114.61 37.7475 114.61 37.7461 114.61C37.5088 114.675 37.2714 114.733 37.0328 114.786C34.4799 115.345 31.8529 115.229 29.4787 114.495C28.61 114.226 27.7763 113.873 26.9924 113.441C26.9884 113.444 26.9858 113.446 26.9832 113.448C23.6322 116.045 20.6009 117.594 17.8797 118.33C9.98325 120.469 4.67849 115.762 1.59269 109.975C1.2865 109.402 1.03113 108.799 0.815193 108.172C4.20012 109.406 7.85892 109.91 11.4556 109.563C12.7724 109.436 14.0773 109.194 15.3542 108.849C19.8847 107.623 24.0652 105.08 27.1958 101.569C29.7686 103.301 33.017 103.661 35.9918 102.856C36.2291 102.792 36.4633 102.722 36.6962 102.641C39.8719 101.585 42.4798 98.9884 43.5749 95.8241C43.2783 96.6985 49.3398 97.1784 49.9736 97.0976C50.4186 97.0425 50.8601 96.9565 51.2916 96.8397C53.264 96.3061 55.0504 95.1383 56.2491 93.4628C58.2202 90.7188 58.4306 86.82 56.7537 83.8869C58.5273 84.1009 60.5282 83.9845 62.3745 83.4849C63.6928 83.1282 64.931 82.5752 65.9512 81.8105C66.2819 81.5683 66.5915 81.3014 66.8958 81.0202C66.8054 81.5332 66.6189 82.0262 66.3347 82.4994C66.0274 82.9342 65.7132 83.3551 65.4 83.774C64.9913 84.1281 64.539 84.4797 64.1306 84.8353C63.6826 85.1029 63.2233 85.3052 62.7457 85.4344C62.4833 85.5055 62.2133 85.5546 61.9388 85.5811C62.0946 85.9337 62.2564 86.3021 62.3639 86.6995C62.4069 86.9171 62.4498 87.1347 62.4902 87.337C62.8518 88.6732 62.8673 90.0249 62.5364 91.3956C62.3095 92.022 62.0567 92.6697 61.8085 93.27C61.3418 94.251 60.6669 95.0272 59.7847 95.6017L59.4836 95.8359L59.4848 95.9582C59.5074 96.5473 59.4149 97.1055 59.1612 97.6325C59.125 97.8397 59.0319 98.0017 58.9281 98.1826L58.9151 98.2466L58.7814 98.4817C58.5125 99.0112 58.1378 99.4325 57.6348 99.7675C57.3922 100 57.1211 100.18 56.8126 100.34C56.9358 100.795 57.0174 101.262 57.069 101.735C57.124 102.056 57.1599 102.412 57.138 102.784C56.4553 103.808 55.5865 104.714 54.5939 105.44C54.0201 105.854 53.4011 106.219 52.761 106.5C52.3693 106.67 51.9667 106.811 51.5559 106.922C50.2198 107.284 48.8047 107.331 47.4832 107.058C45.6378 110.043 42.9257 112.531 39.788 113.899C39.1209 114.186 38.4373 114.423 37.7477 114.61Z" fill="#ED1F2D"/>
</svg>
