<?xml version="1.0" standalone="no"?>
<!DOCTYPE svg PUBLIC "-//W3C//DTD SVG 20010904//EN"
 "http://www.w3.org/TR/2001/REC-SVG-20010904/DTD/svg10.dtd">
<svg version="1.0" xmlns="http://www.w3.org/2000/svg"
 width="512.000000pt" height="512.000000pt" viewBox="0 0 512.000000 512.000000"
 preserveAspectRatio="xMidYMid meet">
<metadata>
Created by potrace 1.14, written by Peter Selinger 2001-2017
</metadata>
<g transform="translate(0.000000,512.000000) scale(0.100000,-0.100000)"
fill="#000000" stroke="none">
<path d="M2440 3696 c-63 -43 -244 -285 -309 -413 -12 -24 -24 -43 -27 -43 -3
0 -44 24 -92 52 -98 59 -290 145 -401 178 -88 27 -132 19 -179 -34 -33 -38
-52 -120 -73 -316 -12 -107 -6 -305 10 -390 5 -25 9 -46 8 -46 -1 -1 -51 -7
-112 -14 -151 -16 -289 -45 -319 -67 -31 -22 -56 -72 -56 -111 0 -44 53 -190
115 -317 188 -384 457 -606 835 -688 136 -29 407 -29 572 1 l118 22 118 -22
c165 -30 436 -30 572 -1 383 84 657 310 840 696 66 138 110 263 110 310 0 50
-31 100 -74 121 -39 18 -221 51 -344 61 l-83 7 8 57 c4 31 8 146 7 256 -1 218
-25 384 -62 435 -11 14 -40 34 -66 45 l-48 19 -114 -38 c-125 -42 -299 -123
-388 -180 -31 -20 -60 -36 -64 -36 -4 0 -29 38 -55 84 -87 150 -250 351 -308
381 -42 22 -99 19 -139 -9z m148 -432 c258 -381 261 -737 9 -1102 -58 -84 -56
-85 -130 26 -217 325 -249 628 -97 933 63 127 135 232 154 226 5 -2 34 -39 64
-83z m-795 -176 c54 -28 125 -70 158 -94 l59 -44 -7 -43 c-5 -23 -8 -108 -8
-189 0 -82 0 -148 -1 -148 -1 0 -33 12 -70 26 -38 14 -109 36 -159 48 l-89 23
-14 49 c-15 55 -28 343 -18 399 9 44 10 44 149 -27z m1612 -25 c9 -105 1 -239
-21 -332 l-15 -70 -57 -12 c-39 -8 -247 -75 -247 -79 0 0 2 45 3 99 3 86 -7
198 -24 267 -5 18 7 30 66 69 73 49 256 144 277 145 7 0 14 -32 18 -87z
m-1841 -673 c132 -13 231 -41 335 -95 128 -67 248 -177 328 -303 48 -74 117
-221 109 -230 -4 -3 -82 -8 -174 -10 -127 -3 -188 0 -257 13 -277 52 -489 225
-638 522 l-47 92 43 5 c44 6 108 11 167 14 19 1 80 -3 134 -8z m2252 -9 l23
-6 -43 -87 c-64 -127 -138 -228 -233 -319 -68 -64 -105 -89 -186 -129 -162
-78 -199 -85 -439 -85 -113 0 -210 3 -213 7 -11 11 58 151 120 244 30 45 93
118 141 163 130 123 299 199 491 221 79 8 295 3 339 -9z"/>
</g>
</svg>
